<?xml version="1.0"?>
<svg xmlns="http://www.w3.org/2000/svg" xmlns:xlink="http://www.w3.org/1999/xlink" xmlns:svgjs="http://svgjs.com/svgjs" version="1.1" width="512" height="512" x="0" y="0" viewBox="0 0 24 24" style="enable-background:new 0 0 512 512" xml:space="preserve"><g><path xmlns="http://www.w3.org/2000/svg" d="m12 0a12 12 0 1 0 12 12 12.013 12.013 0 0 0 -12-12zm1 21.949v-2.949h-2v2.949a10.015 10.015 0 0 1 -8.949-8.949h2.949v-2h-2.949a10.015 10.015 0 0 1 8.949-8.949v2.949h2v-2.949a10.015 10.015 0 0 1 8.949 8.949h-2.949v2h2.949a10.015 10.015 0 0 1 -8.949 8.949zm0-10.949h2v2h-2v2h-2v-2h-2v-2h2v-2h2z" fill="#ffffff" data-original="#000000"/></g></svg>
